<svg version="1.1" id="Layer_1" xmlns="http://www.w3.org/2000/svg" xmlns:xlink="http://www.w3.org/1999/xlink" x="0px" y="0px"
	 width="100%" viewBox="0 0 1024 544" enable-background="new 0 0 1024 544" xml:space="preserve">
<path fill="#000000" opacity="1.000000" stroke="none" 
	d="
M398.127380,297.092346 
	C401.562927,307.802063 404.151581,318.236938 403.398651,329.247437 
	C401.992981,349.802551 384.316925,364.144348 362.526978,362.318665 
	C343.820526,360.751343 328.853516,342.669922 330.579956,323.723907 
	C332.076233,307.303192 341.631714,295.420105 357.514648,290.903961 
	C363.494171,289.203735 368.721771,286.824219 372.261902,281.494568 
	C373.081787,280.260254 374.227600,278.668762 375.873505,279.826324 
	C381.266663,283.619385 384.022095,280.741394 386.337891,275.241333 
	C392.481354,281.611481 394.950836,289.330261 398.127380,297.092346 
z"/>
<path fill="#000000" opacity="1.000000" stroke="none" 
	d="
M287.928162,255.744980 
	C286.616272,248.070190 285.679169,240.792221 287.596558,233.533005 
	C292.315186,215.668457 308.026306,205.136002 327.419830,206.735962 
	C343.006409,208.021835 357.533600,222.295578 359.234894,237.995972 
	C361.263214,256.714203 350.850952,273.175629 333.538055,278.187439 
	C328.390778,279.677551 323.224670,280.866608 319.103088,284.583862 
	C317.412720,286.108459 315.806030,285.299133 314.059570,284.455841 
	C307.834991,281.450134 303.912994,283.200684 301.895386,291.053101 
	C293.808319,280.023224 290.489227,268.276886 287.928162,255.744980 
z"/>
<path fill="#000000" opacity="1.000000" stroke="none" 
	d="
M460.331116,258.219482 
	C473.105865,250.006271 483.470428,252.484344 491.415833,265.593048 
	C492.558350,264.109222 493.592010,262.683563 494.710541,261.327972 
	C500.483337,254.331726 509.516968,251.720917 517.658630,254.666855 
	C525.099731,257.359314 529.251831,263.839508 529.325195,273.202026 
	C529.416565,284.865021 529.339844,296.529327 529.438110,308.192230 
	C529.459656,310.749725 528.977112,312.314362 525.939697,312.305450 
	C523.076294,312.297058 521.613098,311.413940 521.636902,308.310150 
	C521.713623,298.313385 521.623840,288.315460 521.663879,278.318268 
	C521.674683,275.631195 521.418945,273.013489 520.713745,270.416962 
	C518.963318,263.971680 515.562561,260.715057 509.964478,260.226807 
	C502.526978,259.578094 497.560150,262.095856 494.775940,268.192322 
	C493.028168,272.019348 492.348633,276.131927 492.341370,280.342194 
	C492.325867,289.339905 492.293701,298.337646 492.319855,307.335266 
	C492.327759,310.053345 492.133636,312.236511 488.464844,312.322723 
	C484.798889,312.408905 483.891479,310.604797 483.902679,307.421753 
	C483.937286,297.591248 483.884644,287.760254 483.821472,277.929718 
	C483.807587,275.767365 483.810089,273.573242 483.460083,271.450653 
	C482.396667,265.001770 478.916290,261.183472 473.599579,260.345062 
	C466.528625,259.230011 460.494507,262.008148 457.532715,267.769897 
	C455.493195,271.737610 455.091919,276.032379 455.080750,280.399017 
	C455.058105,289.229950 455.006561,298.060913 455.024628,306.891754 
	C455.031036,310.016296 454.702087,312.416779 450.518066,312.356049 
	C446.343536,312.295410 446.700378,309.671936 446.663971,306.955017 
	C446.458740,291.638000 447.315216,276.297577 445.748077,261.011292 
	C445.371338,257.336365 446.019501,254.855423 450.492523,254.735901 
	C455.268066,254.608292 454.127136,257.959167 454.289490,260.587128 
	C454.377380,262.009338 454.305145,263.441406 454.305145,265.210510 
	C456.441559,262.701599 458.248322,260.579803 460.331116,258.219482 
z"/>
<path fill="#000000" opacity="1.000000" stroke="none" 
	d="
M577.634399,308.793030 
	C571.523743,313.093414 565.240234,315.066681 558.069824,313.448181 
	C550.621094,311.766815 545.919189,307.129272 544.921387,300.257202 
	C544.002502,293.928223 547.965637,286.734894 554.305298,283.441040 
	C560.442505,280.252380 567.245972,279.306061 573.867920,277.725464 
	C576.940430,276.992096 581.543335,277.766663 582.268372,273.827972 
	C583.073669,269.452881 581.887939,264.792999 578.412048,261.410034 
	C572.094971,255.261688 560.815735,257.610687 557.361023,265.843842 
	C556.081177,268.893921 555.113281,271.429626 551.009521,269.461639 
	C549.107971,268.549744 548.467712,267.512238 549.157776,265.596741 
	C549.326904,265.127411 549.516968,264.664917 549.715088,264.206940 
	C553.016052,256.578949 563.741089,252.156372 574.744507,253.883270 
	C584.176392,255.363510 589.338440,260.765839 590.380127,269.969727 
	C591.451538,279.436310 590.587463,288.928436 590.960754,298.400085 
	C591.152893,303.274017 590.689758,308.658051 598.181946,308.516479 
	C597.748352,312.718811 595.092712,313.058289 592.445068,313.275513 
	C586.222107,313.786224 584.162842,309.463013 582.373169,303.480255 
	C580.600830,305.506866 579.259094,307.041107 577.634399,308.793030 
M573.442932,282.197845 
	C568.272095,283.401520 563.021484,284.407227 558.639343,287.710205 
	C554.414673,290.894470 553.566406,295.305023 554.359314,300.185699 
	C554.984802,304.036560 557.484619,306.333557 561.119202,307.373047 
	C570.884644,310.166016 580.248779,304.553101 582.195984,294.583801 
	C583.112061,289.893585 582.817261,285.127045 582.294067,279.916046 
	C579.289978,280.699066 576.757507,281.359131 573.442932,282.197845 
z"/>
<path fill="#000000" opacity="1.000000" stroke="none" 
	d="
M643.975952,245.530334 
	C646.007141,241.578568 646.405273,241.349930 651.674194,240.805603 
	C652.944519,243.962799 652.308044,247.312302 652.274658,250.553711 
	C652.241699,253.757019 653.447876,255.158768 656.651672,255.054428 
	C659.478088,254.962372 662.314392,254.994766 665.139709,255.121231 
	C666.674988,255.189957 668.231262,255.574600 668.124634,257.659363 
	C668.024109,259.624756 666.590820,260.075470 664.991882,260.122589 
	C662.329773,260.201019 659.656189,260.327454 657.003174,260.169373 
	C653.644226,259.969208 652.211792,261.148010 652.270508,264.720978 
	C652.445618,275.374939 652.220154,286.035461 652.393921,296.689453 
	C652.560059,306.873291 657.135742,309.879730 667.040283,306.628174 
	C667.830139,306.368866 668.603638,306.016022 669.513245,306.719940 
	C670.671570,308.059662 669.695557,309.153259 668.660095,309.952393 
	C664.235168,313.367462 659.392212,315.053223 653.750854,313.342987 
	C648.380188,311.714844 645.383057,308.033569 644.586243,302.631378 
	C643.047485,292.200226 644.206055,281.687286 643.851379,271.216980 
	C643.789368,269.387299 643.684631,267.539276 643.862122,265.725403 
	C644.248962,261.772675 642.922607,259.674927 638.611267,260.165710 
	C637.331970,260.311340 635.943604,260.215942 634.478821,258.051361 
	C640.093384,255.920090 646.247009,253.821152 643.975952,245.530334 
z"/>
<path fill="#000000" opacity="1.000000" stroke="none" 
	d="
M713.520264,256.080231 
	C713.180847,260.749512 712.015930,263.172577 706.507446,262.490692 
	C698.763306,261.532043 692.941223,268.311188 692.316467,278.447083 
	C691.733765,287.900299 691.723389,297.392151 691.609436,306.868805 
	C691.575928,309.650665 692.083923,312.199249 687.918030,312.337402 
	C683.601685,312.480530 683.570496,309.899384 683.607483,306.852081 
	C683.797180,291.210693 683.596985,275.571350 682.563416,259.962616 
	C682.312561,256.173492 683.737305,254.972870 687.240417,254.724762 
	C691.375000,254.431915 691.362244,256.985352 691.317993,259.819275 
	C691.281677,262.145020 691.310608,264.471802 691.310608,267.944214 
	C693.490967,263.927032 695.202637,260.789032 697.790527,258.310791 
	C702.666748,253.641083 708.716614,252.635986 713.520264,256.080231 
z"/>
<path fill="#000000" opacity="1.000000" stroke="none" 
	d="
M617.257690,254.827789 
	C620.410339,254.601944 621.104126,256.255493 621.101868,258.553986 
	C621.085876,275.029449 621.046753,291.505005 621.079651,307.980377 
	C621.086060,311.183502 619.680786,312.363892 616.512878,312.331421 
	C613.300659,312.298523 612.655212,310.645752 612.657227,307.910187 
	C612.669067,291.601410 612.681824,275.291626 612.499268,258.984406 
	C612.461670,255.629700 614.387512,255.170868 617.257690,254.827789 
z"/>
<path fill="#000000" opacity="1.000000" stroke="none" 
	d="
M734.382202,268.009888 
	C734.385254,281.328094 734.384399,294.147614 734.393799,306.967102 
	C734.395752,309.710388 734.603882,312.286499 730.493469,312.376831 
	C726.215271,312.470825 726.096863,309.898041 726.085266,306.863007 
	C726.025391,291.213959 726.041809,275.563324 725.788452,259.917175 
	C725.723755,255.916931 727.952087,255.186600 731.013977,254.884857 
	C734.773254,254.514404 734.333862,257.224884 734.373901,259.519989 
	C734.420349,262.182953 734.382935,264.847412 734.382202,268.009888 
z"/>
<path fill="#000000" opacity="1.000000" stroke="none" 
	d="
M726.473877,243.603455 
	C723.945251,239.936401 724.448486,236.978012 727.836487,234.831146 
	C730.728638,232.998474 733.289429,234.095367 735.158813,236.635971 
	C736.839966,238.920731 736.611267,241.449112 734.726379,243.451096 
	C732.342285,245.983307 729.537537,245.997681 726.473877,243.603455 
z"/>
<path fill="#000000" opacity="1.000000" stroke="none" 
	d="
M613.956726,244.451111 
	C611.022400,241.912613 610.347839,239.169022 612.456116,236.302917 
	C614.069031,234.110184 616.401062,233.288589 619.070312,234.560562 
	C621.902466,235.910156 622.902954,238.373581 622.122070,241.185150 
	C620.994507,245.244934 618.039734,246.043777 613.956726,244.451111 
z"/>
</svg>