<svg version="1.1" id="Layer_1" xmlns="http://www.w3.org/2000/svg" xmlns:xlink="http://www.w3.org/1999/xlink" x="0px" y="0px"
	 width="100%" viewBox="0 0 1024 544" enable-background="new 0 0 1024 544" xml:space="preserve">
<path fill="#000000" opacity="1.000000" stroke="none" 
	d="
M296.553772,334.247314 
	C285.261383,308.777008 299.741119,284.620453 327.069275,282.708679 
	C340.542084,281.766174 349.139038,272.680542 348.921326,259.115234 
	C348.832153,253.559570 349.185547,248.155457 350.798859,242.849670 
	C355.397797,227.724869 371.874084,216.861282 387.050995,218.931412 
	C404.880280,221.363327 418.086243,235.446503 418.342590,252.301605 
	C418.651672,272.625153 405.729980,286.821655 385.535004,288.345703 
	C369.555603,289.551666 360.374725,300.565674 361.902008,316.697449 
	C363.181274,330.209625 353.062408,345.287384 339.196198,350.530487 
	C324.870239,355.947479 308.409210,350.955597 299.157013,338.360840 
	C298.272491,337.156799 297.535889,335.844086 296.553772,334.247314 
z"/>
<path fill="#000000" opacity="1.000000" stroke="none" 
	d="
M479.564392,253.997864 
	C485.064636,255.588974 488.489349,259.078735 491.431671,264.401306 
	C495.263763,258.050598 500.379700,254.389252 507.362610,253.304016 
	C519.068359,251.484802 528.909241,258.230621 530.328247,269.923462 
	C531.897278,282.852692 530.734741,295.871033 530.898010,308.848755 
	C530.931091,311.479401 529.727966,312.850067 526.998718,312.881653 
	C523.894897,312.917511 522.996399,311.156067 522.994080,308.419159 
	C522.986511,299.424622 522.932190,290.430084 522.898682,281.435547 
	C522.891846,279.603333 522.924316,277.770630 522.892944,275.938904 
	C522.705505,265.000610 518.872620,260.324524 509.913483,260.079926 
	C500.296600,259.817352 493.680145,265.948334 493.322723,276.068634 
	C492.981934,285.718414 493.171600,295.386841 493.120667,305.047028 
	C493.112762,306.545563 493.072510,308.044037 493.034363,309.542236 
	C492.966675,312.199738 491.212677,312.823456 488.991364,312.880066 
	C486.484833,312.943909 485.450836,311.758392 485.439087,309.225250 
	C485.395966,299.902130 485.232391,290.579498 485.104340,281.256836 
	C485.067749,278.593170 485.117493,275.921112 484.920319,273.268280 
	C484.369629,265.858643 481.059448,261.494751 475.292847,260.368134 
	C467.188049,258.784698 460.419220,261.876373 457.303314,268.652893 
	C455.895081,271.715546 455.263824,274.942871 455.282104,278.343048 
	C455.334137,288.003662 455.263947,297.664825 455.285034,307.325714 
	C455.291229,310.159515 455.239777,312.760376 451.326630,312.821014 
	C447.089233,312.886627 447.642212,309.903473 447.639801,307.277283 
	C447.625702,291.952972 447.561890,276.627991 447.709045,261.305084 
	C447.733551,258.754120 445.986542,254.843597 451.155762,254.657028 
	C456.131470,254.477432 454.722076,258.370667 455.498718,261.702026 
	C461.940887,254.042328 469.885345,251.703644 479.564392,253.997864 
z"/>
<path fill="#000000" opacity="1.000000" stroke="none" 
	d="
M548.265259,265.745392 
	C553.042358,250.320511 580.855957,250.535263 588.236816,260.139679 
	C591.929138,264.944244 593.041504,270.297028 593.121704,276.015076 
	C593.268677,286.500671 593.213257,296.988983 593.259338,307.476105 
	C593.270264,309.962708 593.848267,312.713562 589.931458,312.769562 
	C586.416992,312.819794 585.962158,310.449432 585.780457,307.784515 
	C585.713440,306.801849 585.616760,305.821198 585.478516,304.189331 
	C577.746216,313.085907 568.453735,315.926605 557.485657,313.263885 
	C550.107056,311.472504 545.238953,306.103760 544.374268,298.717712 
	C543.559448,291.757660 547.074890,285.175110 553.605164,281.882019 
	C561.770935,277.764160 570.654114,277.894226 579.479858,277.818298 
	C585.937317,277.762756 586.428406,277.167358 585.081787,270.903961 
	C583.713562,264.539886 580.578003,261.418396 574.149597,260.266235 
	C567.228333,259.025757 560.834717,259.663544 556.285767,265.936523 
	C555.706116,266.735809 555.253845,267.653778 554.883911,268.573639 
	C553.951172,270.892944 552.168030,271.317932 549.999023,270.839111 
	C547.099915,270.199188 547.664551,268.119812 548.265259,265.745392 
M583.840210,297.127167 
	C584.341858,295.379944 585.000488,293.660736 585.317810,291.880676 
	C586.678833,284.245300 586.191772,283.722443 578.473816,283.956055 
	C576.319031,284.021271 574.163635,284.081512 572.008118,284.104309 
	C566.834778,284.159058 561.714050,284.416595 557.173584,287.361420 
	C553.276306,289.889069 551.782837,293.533844 552.327148,298.033417 
	C552.858887,302.428314 555.431458,305.217377 559.541199,306.673096 
	C568.663757,309.904480 578.255798,306.369659 583.840210,297.127167 
z"/>
<path fill="#000000" opacity="1.000000" stroke="none" 
	d="
M658.666260,309.431396 
	C659.146912,312.436768 657.512695,313.244568 655.362610,313.804962 
	C646.674194,316.069641 638.869751,310.186035 638.713440,300.882782 
	C638.523315,289.570068 638.513245,278.250061 638.695129,266.937531 
	C638.763123,262.707642 638.395264,259.585876 632.975464,260.284760 
	C631.128662,260.522919 629.737244,259.803680 629.729065,257.540619 
	C629.721008,255.305237 631.050171,254.501282 632.924866,254.739243 
	C638.309875,255.422791 639.026306,252.345383 638.661743,248.089981 
	C638.492065,246.109589 638.643555,244.099121 638.691162,242.103271 
	C638.759094,239.251755 640.935486,239.216095 642.932861,239.018875 
	C645.114319,238.803482 645.926880,240.113235 645.997437,242.026627 
	C646.101685,244.852676 646.240540,247.686432 646.138123,250.508667 
	C646.029663,253.497284 647.270325,254.800461 650.262268,254.637543 
	C652.085388,254.538254 653.921082,254.693924 655.751160,254.694153 
	C657.558960,254.694397 658.588501,255.477295 658.551147,257.367859 
	C658.517212,259.087189 657.825134,260.244934 655.917053,260.292114 
	C655.750732,260.296204 655.582275,260.293518 655.418884,260.319824 
	C652.531738,260.783875 648.823303,258.929016 646.886536,261.496613 
	C645.012451,263.981201 646.198486,267.633453 646.175537,270.764954 
	C646.108459,279.916626 646.130920,289.070099 646.234802,298.221558 
	C646.315613,305.341888 648.266052,307.214111 655.533997,307.273224 
	C657.026123,307.285339 658.180542,307.410736 658.666260,309.431396 
z"/>
<path fill="#000000" opacity="1.000000" stroke="none" 
	d="
M679.336243,280.254944 
	C679.331604,289.887451 679.297302,299.050781 679.342529,308.213745 
	C679.355225,310.798859 679.068970,312.837830 675.722351,312.875122 
	C672.221985,312.914093 671.678589,310.912689 671.687866,308.032898 
	C671.738831,292.205719 671.682556,276.378235 671.721863,260.550995 
	C671.728516,257.858795 670.914917,254.623108 675.560242,254.656693 
	C680.270691,254.690750 679.062500,258.037964 679.310364,260.654755 
	C679.355774,261.133820 679.443237,261.608887 679.596313,262.681671 
	C683.936462,257.658081 688.607788,253.907990 695.261963,253.682129 
	C698.723755,253.564636 699.621826,255.267685 699.296082,258.310822 
	C699.051636,260.594116 697.320557,260.866730 695.670959,260.899078 
	C685.003662,261.108246 679.057495,269.942841 679.336243,280.254944 
z"/>
<path fill="#000000" opacity="1.000000" stroke="none" 
	d="
M618.100037,264.061279 
	C618.096558,278.373932 618.092957,292.194916 618.087585,306.015900 
	C618.087158,307.014893 618.058777,308.014099 618.070068,309.012878 
	C618.100891,311.730713 616.681152,312.922028 614.052063,312.948334 
	C611.301392,312.975830 610.160583,311.556793 610.182983,308.916992 
	C610.327209,291.958405 610.489624,274.999786 610.550659,258.040833 
	C610.560364,255.342300 611.788757,254.631302 614.220764,254.639053 
	C616.661987,254.646820 618.026550,255.516251 618.037659,258.075653 
	C618.045654,259.907043 618.078003,261.738312 618.100037,264.061279 
z"/>
<path fill="#000000" opacity="1.000000" stroke="none" 
	d="
M713.264404,254.279266 
	C717.124939,253.775620 718.415283,255.255157 718.392029,258.736938 
	C718.281982,275.214600 718.321106,291.693481 718.370361,308.171753 
	C718.378357,310.838501 717.825623,312.785889 714.665039,312.855774 
	C711.510620,312.925446 710.789307,311.081543 710.795776,308.353119 
	C710.834961,291.708435 710.805664,275.063568 710.819824,258.418762 
	C710.821228,256.764160 710.711609,254.984756 713.264404,254.279266 
z"/>
<path fill="#000000" opacity="1.000000" stroke="none" 
	d="
M714.146484,243.255615 
	C710.505920,242.228241 709.286865,239.947800 709.933533,236.780502 
	C710.360474,234.689758 711.853577,233.259552 714.011475,233.032303 
	C716.559937,232.763947 718.452332,234.007675 719.501099,236.337021 
	C721.005920,239.679214 719.115601,242.299988 714.146484,243.255615 
z"/>
<path fill="#000000" opacity="1.000000" stroke="none" 
	d="
M619.193298,238.084686 
	C618.719788,241.833664 616.804871,243.551193 613.434143,243.103287 
	C610.818665,242.755722 609.347839,240.879913 609.145935,238.356537 
	C608.940002,235.783737 610.235779,233.726456 612.783569,233.144287 
	C616.386047,232.321121 618.319092,234.363327 619.193298,238.084686 
z"/>
</svg>